<svg width="21" height="21" viewBox="0 0 21 21" fill="none" xmlns="http://www.w3.org/2000/svg">
<g clip-path="url(#clip0_995_685)">
<path d="M20.172 9.52669C20.1951 9.4912 20.2148 9.45368 20.231 9.41461V9.35562C20.2339 9.31831 20.2339 9.28084 20.231 9.24354C20.2339 9.20821 20.2339 9.17269 20.231 9.13736V9.10197V9.03708C20.0318 6.59824 18.9309 4.32115 17.1433 2.65022C15.3556 0.97929 13.0095 0.0344158 10.5628 0L10.4389 0C7.97098 0.0210597 5.60097 0.968265 3.79835 2.65399C1.99573 4.33971 0.891988 6.64099 0.705757 9.10197C0.69931 9.19194 0.711355 9.28228 0.74115 9.36742C0.770845 9.44436 0.812667 9.51605 0.865027 9.57978V9.64466L6.7993 15.4551C6.54477 16.0569 6.44319 16.7123 6.50362 17.3629C6.56404 18.0135 6.78459 18.639 7.14558 19.1837C7.50658 19.7283 7.99679 20.1751 8.57247 20.4842C9.14815 20.7933 9.79139 20.955 10.4448 20.955C11.0982 20.955 11.7415 20.7933 12.3171 20.4842C12.8928 20.1751 13.383 19.7283 13.744 19.1837C14.105 18.639 14.3256 18.0135 14.386 17.3629C14.4464 16.7123 14.3448 16.0569 14.0903 15.4551L20.0187 9.64466V9.60927C20.0187 9.60927 20.0187 9.57978 20.0541 9.56798C20.0895 9.55618 20.172 9.54438 20.172 9.52669ZM18.5852 7.83371C17.9713 7.61685 17.3251 7.50517 16.674 7.50337C15.893 7.5006 15.1198 7.65925 14.4029 7.96938C14.4324 6.35899 14.2201 3.74579 12.8161 1.81096C14.2233 2.22084 15.4983 2.99276 16.5138 4.04962C17.5292 5.10649 18.2496 6.41129 18.6029 7.83371H18.5852ZM10.4861 13.0837C10.2026 13.083 9.91977 13.1127 9.64255 13.1722L8.29171 9.63287C8.94929 9.22034 9.70983 9.00152 10.4861 9.00152C11.2624 9.00152 12.0229 9.22034 12.6805 9.63287L11.3296 13.1722C11.0582 13.1139 10.7814 13.0843 10.5038 13.0837H10.4861ZM10.4861 1.5927C12.7041 3.03792 12.9518 6.3118 12.9164 8.08146C12.154 7.72034 11.3209 7.53302 10.4772 7.53302C9.63361 7.53302 8.8005 7.72034 8.03806 8.08146C8.02036 6.2941 8.27991 3.03792 10.5097 1.5927H10.4861ZM8.12654 1.81096C6.7698 3.74579 6.55744 6.35899 6.60463 7.96938C5.89175 7.65987 5.12254 7.5012 4.34536 7.50337C3.68984 7.5047 3.03941 7.61842 2.42233 7.83961C2.77165 6.42027 3.48631 5.11705 4.49528 4.05944C5.50424 3.00184 6.7724 2.22667 8.17373 1.81096H8.12654ZM2.65828 9.32023C3.32861 9.03359 4.06215 8.9269 4.78635 9.01071C5.51056 9.09451 6.20034 9.36589 6.7875 9.79803L8.28581 13.7503C8.07402 13.8987 7.87654 14.0666 7.69592 14.2517L2.65828 9.32023ZM10.5038 19.5253C10.0126 19.5253 9.53247 19.3796 9.12407 19.1067C8.71567 18.8339 8.39737 18.446 8.2094 17.9922C8.02144 17.5384 7.97226 17.0391 8.06808 16.5574C8.1639 16.0756 8.40043 15.6331 8.74774 15.2858C9.09505 14.9385 9.53756 14.702 10.0193 14.6061C10.501 14.5103 11.0004 14.5595 11.4542 14.7475C11.9079 14.9354 12.2958 15.2537 12.5687 15.6621C12.8416 16.0705 12.9872 16.5507 12.9872 17.0419C12.9857 17.7 12.7235 18.3308 12.2581 18.7962C11.7927 19.2616 11.162 19.5237 10.5038 19.5253ZM12.7041 13.7503L14.1965 9.80983C14.7805 9.37123 15.4704 9.09537 16.1958 9.01039C16.9212 8.92542 17.6561 9.03436 18.3257 9.32612L13.294 14.2517C13.1121 14.0679 12.9147 13.9002 12.7041 13.7503Z" fill="#FCFC06"/>
</g>
<defs>
<clipPath id="clip0_995_685">
<rect width="21" height="21" fill="#FCFC06"/>
</clipPath>
</defs>
</svg>
