<svg width="29" height="29" viewBox="0 0 29 29" fill="none" xmlns="http://www.w3.org/2000/svg">
<path d="M23.3072 10.6041L11.9593 21.952L5.68869 15.6853C5.01307 15.0097 5.01307 13.9902 5.68869 13.3146C6.36834 12.635 7.3838 12.635 8.06345 13.3146L11.9593 17.2105L20.9365 8.23337C21.6162 7.55372 22.6316 7.55372 23.3072 8.23337C23.9869 8.90899 23.9869 9.92442 23.3072 10.6041ZM14.5 0.947266C7.04802 0.947266 0.947266 7.04802 0.947266 14.5C0.947266 21.952 7.04802 28.0527 14.5 28.0527C21.952 28.0527 28.0527 21.952 28.0527 14.5C28.0527 7.04802 21.952 0.947266 14.5 0.947266Z" fill="#03f58a"/>
</svg>
