<svg xmlns="http://www.w3.org/2000/svg" width="45" height="45" viewBox="0 0 45 45" fill="none">
<rect x="1" y="1" width="43" height="43" rx="21.5" fill="url(#paint0_linear_9_227)" stroke="url(#paint1_linear_9_227)" stroke-width="2"/>
<path d="M33.435 12.9425C36.8231 17.9548 38.4963 23.6086 37.8708 30.1173C37.8682 30.1449 37.854 30.1702 37.8315 30.1868C35.2657 32.0824 32.7798 33.2329 30.3289 33.9958C30.3098 34.0016 30.2893 34.0013 30.2705 33.9949C30.2516 33.9885 30.2351 33.9762 30.2235 33.96C29.6572 33.1672 29.1427 32.3314 28.692 31.4538C28.6661 31.4021 28.6897 31.3399 28.743 31.3195C29.5601 31.0097 30.3371 30.6384 31.0845 30.1988C31.1434 30.1641 31.1471 30.0792 31.0927 30.0385C30.9341 29.92 30.777 29.7955 30.6266 29.671C30.5985 29.648 30.5606 29.6434 30.5287 29.6589C25.6766 31.9134 20.3614 31.9134 15.4519 29.6589C15.42 29.6446 15.3821 29.6495 15.3548 29.6721C15.2048 29.7966 15.0473 29.92 14.8901 30.0385C14.8358 30.0792 14.8403 30.1641 14.8995 30.1988C15.6469 30.6301 16.4239 31.0097 17.2399 31.321C17.2927 31.3414 17.3179 31.4021 17.2916 31.4538C16.8506 32.3326 16.3361 33.1683 15.7594 33.9611C15.7343 33.9932 15.693 34.0079 15.654 33.9958C13.2146 33.2329 10.7288 32.0824 8.16301 30.1868C8.14164 30.1702 8.12626 30.1437 8.12401 30.1162C7.60126 24.4862 8.66664 18.7857 12.5558 12.9414C12.5651 12.9259 12.5794 12.9138 12.5959 12.9067C14.5095 12.023 16.5596 11.3729 18.7024 11.0016C18.7414 10.9956 18.7804 11.0137 18.8006 11.0484C19.0654 11.52 19.368 12.1249 19.5727 12.6192C21.8314 12.272 24.1252 12.272 26.4311 12.6192C26.6359 12.1354 26.928 11.52 27.1916 11.0484C27.201 11.0312 27.2155 11.0174 27.2332 11.009C27.2508 11.0006 27.2707 10.998 27.2899 11.0016C29.4337 11.374 31.4838 12.0241 33.396 12.9067C33.4128 12.9138 33.4267 12.9259 33.435 12.9425ZM20.721 23.6471C20.7446 21.9827 19.5386 20.6055 18.0247 20.6055C16.5232 20.6055 15.3289 21.9706 15.3289 23.6471C15.3289 25.3231 16.5469 26.6883 18.0247 26.6883C19.5266 26.6883 20.721 25.3231 20.721 23.6471ZM30.6892 23.6471C30.7129 21.9827 29.5069 20.6055 27.9934 20.6055C26.4915 20.6055 25.2971 21.9706 25.2971 23.6471C25.2971 25.3231 26.5151 26.6883 27.9934 26.6883C29.5069 26.6883 30.6892 25.3231 30.6892 23.6471Z" fill="#00f68b"/>
<defs>
<linearGradient id="paint0_linear_9_227" x1="4.1411" y1="-3.19313e-06" x2="48.8624" y2="10.0703" gradientUnits="userSpaceOnUse">
<stop stop-color="#013820" />
<stop offset="1" stop-color="#013820"/>
</linearGradient>
<linearGradient id="paint1_linear_9_227" x1="22.5" y1="0" x2="22.5" y2="45" gradientUnits="userSpaceOnUse">
<stop stop-color="#00f68b"/>
<stop offset="1" stop-color="#007643" stop-opacity="0"/>
</linearGradient>
</defs>
</svg>