<svg width="45" height="45" viewBox="0 0 45 45" fill="none" xmlns="http://www.w3.org/2000/svg">
<rect x="1" y="1" width="43" height="43" rx="21.5" fill="url(#paint0_linear_540_690)" stroke="url(#paint1_linear_540_690)" stroke-width="2"/>
<path d="M20.8528 30.4337C20.9797 30.4339 21.1054 30.4591 21.2226 30.5079C21.3398 30.5566 21.4462 30.6279 21.5359 30.7178C21.6255 30.8077 21.6966 30.9144 21.745 31.0317C21.7934 31.1491 21.8182 31.2748 21.818 31.4017C21.8178 31.5287 21.7927 31.6543 21.7439 31.7716C21.6952 31.8888 21.6238 31.9952 21.5339 32.0849C21.444 32.1745 21.3374 32.2455 21.22 32.2939C21.1027 32.3424 20.977 32.3672 20.85 32.367C20.5937 32.3666 20.3479 32.2644 20.1669 32.0829C19.9859 31.9014 19.8844 31.6554 19.8848 31.399C19.8851 31.1426 19.9873 30.8969 20.1689 30.7159C20.3504 30.5349 20.5964 30.4334 20.8528 30.4337ZM36.0108 24.4566C35.8838 24.4565 35.7582 24.4314 35.6409 24.3828C35.5237 24.3341 35.4172 24.2628 35.3275 24.173C35.2378 24.0832 35.1666 23.9766 35.1181 23.8593C35.0697 23.742 35.0447 23.6162 35.0448 23.4893C35.0449 23.3624 35.07 23.2367 35.1187 23.1195C35.1673 23.0022 35.2386 22.8957 35.3284 22.806C35.4183 22.7163 35.5249 22.6452 35.6422 22.5967C35.7595 22.5482 35.8852 22.5233 36.0121 22.5234C36.2685 22.5236 36.5143 22.6256 36.6954 22.807C36.8766 22.9884 36.9783 23.2343 36.9781 23.4907C36.9779 23.7471 36.8759 23.9928 36.6945 24.174C36.5131 24.3551 36.2671 24.4568 36.0108 24.4566ZM36.0108 20.5021C35.2182 20.5028 34.4583 20.818 33.8979 21.3785C33.3374 21.9389 33.0222 22.6988 33.0215 23.4914C33.0215 23.8117 33.0751 24.1307 33.1796 24.4415L23.3058 29.6981C23.032 29.3006 22.6656 28.9756 22.2383 28.7511C21.811 28.5267 21.3355 28.4095 20.8528 28.4097C19.7129 28.4097 18.6748 29.0629 18.1715 30.0817L9.3014 25.404C8.36365 24.9117 7.6624 23.369 7.73665 21.9637C7.77515 21.2309 8.02815 20.6616 8.41452 20.4416C8.65927 20.3041 8.95352 20.3151 9.26702 20.4787L9.32477 20.5104C11.676 21.7479 19.3678 25.8 19.6923 25.9499C20.1914 26.1822 20.4691 26.2757 21.3216 25.8715L37.2221 17.6022C37.4559 17.5142 37.7281 17.2901 37.7281 16.9505C37.7281 16.4802 37.2414 16.2946 37.24 16.2946C36.3353 15.8615 34.9451 15.2111 33.5894 14.5759C30.6909 13.2187 27.406 11.6815 25.9636 10.9252C24.7179 10.2735 23.7155 10.8235 23.5368 10.9335L23.1903 11.1054C16.6975 14.316 8.00752 18.6197 7.51252 18.9209C6.6284 19.4599 6.07977 20.5337 6.00827 21.8661C5.89827 23.9795 6.9749 26.1836 8.51627 26.9907L17.8965 31.828C17.9999 32.5386 18.3554 33.1882 18.8982 33.6583C19.4409 34.1284 20.1347 34.3875 20.8528 34.3882C21.637 34.3869 22.3893 34.0779 22.9481 33.5276C23.5068 32.9774 23.8273 32.2298 23.8406 31.4457L34.1724 25.8454C34.6949 26.2551 35.3453 26.4792 36.0108 26.4792C36.8033 26.4785 37.5632 26.1633 38.1237 25.6029C38.6841 25.0425 38.9993 24.2826 39 23.49C38.9993 22.6974 38.6841 21.9375 38.1237 21.3771C37.5632 20.8166 36.8033 20.5015 36.0108 20.5007" fill="#FDFDC6"/>
<defs>
<linearGradient id="paint0_linear_540_690" x1="4.1411" y1="-3.19313e-06" x2="48.8624" y2="10.0703" gradientUnits="userSpaceOnUse">
<stop stop-color="#252B1B"/>
<stop offset="1" stop-color="#252B1B"/>
</linearGradient>
<linearGradient id="paint1_linear_540_690" x1="22.5" y1="0" x2="22.5" y2="45" gradientUnits="userSpaceOnUse">
<stop stop-color="#FCFC06"/>
<stop offset="1" stop-color="#75835D" stop-opacity="0"/>
</linearGradient>
</defs>
</svg>
