<svg width="24" height="24" viewBox="0 0 24 24" fill="none" xmlns="http://www.w3.org/2000/svg">
<g clip-path="url(#clip0_2436_11021)">
<path d="M23.64 14.9036C23.0661 17.2067 21.8221 19.2878 20.0654 20.8838C18.3086 22.4798 16.118 23.519 13.7707 23.87C11.4233 24.221 9.02455 23.868 6.8778 22.8557C4.73105 21.8433 2.93272 20.2171 1.71024 18.1827C0.487761 16.1482 -0.103957 13.797 0.00991674 11.4262C0.123791 9.05548 0.938143 6.77175 2.34998 4.86385C3.76183 2.95595 5.70774 1.50958 7.94164 0.707649C10.1755 -0.0942809 12.5971 -0.215746 14.9 0.358614C17.9876 1.12868 20.6429 3.09361 22.282 5.82125C23.921 8.54888 24.4095 11.8158 23.64 14.9036Z" fill="white"/>
<path d="M11.999 3.62793L11.887 4.00993V15.0849L11.999 15.1969L17.14 12.1579L11.999 3.62793Z" fill="#343434"/>
<path d="M11.999 3.62793L6.85797 12.1579L11.999 15.1969V3.62793Z" fill="#8C8C8C"/>
<path d="M11.996 16.1699L11.933 16.2469V20.1918L11.996 20.3768L17.14 13.1318L11.996 16.1699Z" fill="#3C3C3B"/>
<path d="M11.999 20.3778V16.1708L6.85797 13.1328L11.999 20.3778Z" fill="#8C8C8C"/>
<path d="M11.999 15.1973L17.14 12.1583L11.999 9.82129V15.1973Z" fill="#141414"/>
<path d="M6.85797 12.1583L11.999 15.1973V9.82129L6.85797 12.1583Z" fill="#393939"/>
</g>
<defs>
<clipPath id="clip0_2436_11021">
<rect width="24" height="24.002" fill="white"/>
</clipPath>
</defs>
</svg>
