<svg width="177" height="178" viewBox="0 0 177 178" fill="none" xmlns="http://www.w3.org/2000/svg">
<path d="M109.265 23.4558C109.038 23.4991 108.713 23.3835 108.441 22.7571C108.404 22.6702 108.361 22.5749 108.316 22.4732C107.801 21.3291 106.928 19.3835 109.113 19.8002C111.491 20.2539 119.322 26.6432 120.962 31.0789C121.356 32.3677 120.929 33.2134 119.12 32.595C118.205 32.2821 117.324 31.7004 116.673 31.1832C116.069 30.7034 115.398 29.5871 116.139 29.7976C116.444 29.8899 116.702 30.153 116.975 30.4313C117.319 30.7812 117.688 31.1551 118.199 31.2434C118.932 31.3702 118.765 30.9148 118.589 30.6713C117.325 28.7268 113.951 24.54 112.022 23.3874C111.788 23.2481 111.571 23.1142 111.368 22.9897L111.365 22.9881C110.63 22.5362 110.097 22.209 109.782 22.2009C109.492 22.1935 109.492 22.5541 109.492 22.8874C109.492 22.9773 109.492 23.0652 109.487 23.1433C109.476 23.2858 109.405 23.4292 109.265 23.4558Z" fill="rgba(253,253,198,0.1)"/>
<path fill-rule="evenodd" clip-rule="evenodd" d="M117.724 22.1307C123.272 27.8606 125.896 34.3406 123.616 36.6485L121.548 38.9672C120.854 39.7459 119.897 40.3348 118.797 40.4195C113.339 40.8396 108.603 37.6752 105.136 33.7861C101.669 29.8968 99.371 25.1732 98.8134 22.2438C98.6355 21.3084 99.0261 20.4316 99.6178 19.8081L103.274 15.951C103.291 15.9335 103.308 15.9176 103.326 15.903C103.349 15.8789 103.372 15.8553 103.396 15.8321C105.735 13.5533 112.15 16.3733 117.724 22.1307ZM122.878 35.9535C122.552 36.2712 122.017 36.4822 121.175 36.4542C120.328 36.426 119.264 36.1551 118.038 35.6163C117.162 35.2314 116.23 34.7208 115.269 34.0949L115.264 34.0909C115.208 34.0319 115.141 33.9895 115.069 33.9638C113.404 32.8571 111.659 31.4097 109.98 29.6759C107.261 26.8675 105.296 23.907 104.296 21.4229C103.795 20.1784 103.556 19.1027 103.552 18.2532C103.549 17.4077 103.775 16.8774 104.101 16.5597C104.427 16.242 104.962 16.031 105.804 16.0591C106.65 16.0873 107.716 16.3582 108.941 16.897C111.387 17.9722 114.28 20.029 116.999 22.8374C119.718 25.6458 121.683 28.6063 122.683 31.0903C123.185 32.3348 123.423 33.4105 123.426 34.2601C123.43 34.988 123.263 35.4823 123.008 35.8084L122.882 35.9502L122.878 35.9535ZM114.086 34.5211C113.074 33.8198 112.043 33.005 111.025 32.0887L107.878 35.1113C108.866 35.9982 109.921 36.793 111.035 37.4522L114.086 34.5211ZM111.965 37.9634C113.288 38.636 114.687 39.111 116.145 39.3212C116.155 39.309 116.166 39.2971 116.178 39.2856L118.566 36.9185C117.44 36.5154 116.216 35.8993 114.95 35.0952L111.965 37.9634ZM118.72 39.408C118.297 39.4406 117.878 39.4497 117.464 39.4368L119.668 37.2524C120.342 37.4168 120.967 37.4903 121.529 37.4667L120.795 38.2909C120.23 38.9235 119.501 39.3479 118.72 39.408ZM109.255 30.3826C109.594 30.7326 109.936 31.0717 110.28 31.3995L107.138 34.4177C106.708 33.997 106.291 33.5597 105.89 33.1099C105.231 32.3707 104.618 31.6018 104.052 30.8228L107.078 27.9157C107.741 28.7437 108.469 29.5707 109.255 30.3826ZM106.454 27.1108C105.792 26.2288 105.205 25.3509 104.701 24.4939L101.821 27.2611C102.296 28.152 102.846 29.0697 103.464 29.9834L106.454 27.1108ZM104.19 23.5803L101.34 26.3188C100.824 25.2592 100.421 24.2562 100.143 23.3665L102.958 20.6796C103.237 21.5869 103.651 22.5638 104.19 23.5803ZM102.675 19.5499C102.584 19.0699 102.539 18.6167 102.541 18.196L100.35 20.5072C99.9169 20.9642 99.7058 21.5244 99.8064 22.0536C99.8189 22.118 99.8321 22.1833 99.8463 22.2498L102.675 19.5499Z" fill="rgba(253,253,198,0.1)"/>
<path fill-rule="evenodd" clip-rule="evenodd" d="M72.5446 30.4449L85.5675 55.1534C88.5673 53.8372 93.4544 52.1964 99.0826 51.2375C104.475 50.3189 110.622 50.0294 116.431 51.2699C117.716 51.5442 119.984 52.3396 121.207 52.8179C120.861 52.6868 121.564 52.9573 121.207 52.8179C122.098 53.1557 123.098 53.6098 123.965 53.9942C125.774 54.7963 127.521 55.8181 129.224 57.5726C130.506 58.8937 131.781 60.6805 133.009 63.0123C133.13 63.2406 133.217 63.4853 133.274 63.7373C133.847 66.3068 135.339 72.9891 132.807 79.8653C131.522 83.3543 130.462 86.015 129.014 88.6123C127.564 91.2129 125.735 93.7291 122.926 96.9523C119.791 100.551 117.57 102.879 116.257 104.173H116.669C122.413 99.9265 126.42 94.4395 128.998 89.9828C130.298 87.7356 131.231 85.7567 131.838 84.3419C132.142 83.6349 132.364 83.0688 132.51 82.6816C132.582 82.488 132.636 82.3391 132.671 82.2394C132.689 82.1895 132.702 82.152 132.71 82.1275L132.719 82.1004L132.723 82.0881C134.832 75.8944 134.926 71.0935 134.504 67.8616C134.294 66.2441 133.954 65.0155 133.671 64.1982C133.529 63.7895 133.402 63.4837 133.311 63.2834C133.266 63.1833 133.18 63.0124 133.18 63.0124C133.169 62.9889 133.186 63.0224 133.18 63.0124C135.999 65.4749 139.651 68.6686 141.18 73.0889L141.19 73.1179L141.197 73.1477C142.608 79.0271 141.615 85.0138 139.832 90.0797C138.053 95.1314 135.471 99.3207 133.611 101.658C129.154 108.247 114.506 123.467 91.1667 132.336C67.69 141.257 52.0978 132.282 47.1705 126.516L47.1129 126.449L40.5954 112.119L70.2998 96.4635L70.5841 97.0401C71.4436 98.7825 73.7229 101.112 77.6899 101.793C80.9551 102.354 85.4162 101.804 91.2198 98.7975C94.3942 96.8228 96.4584 95.0846 97.7265 93.7692C98.8076 92.6478 99.2704 91.8756 99.3834 91.5513L99.4017 91.5004L99.4283 91.4527C99.9452 90.5293 100.346 89.2123 100.077 88.1526C99.9493 87.6487 99.6685 87.1899 99.1391 86.8289C98.5973 86.4604 97.7572 86.1696 96.4783 86.0927C93.2333 85.8996 88.9296 86.971 84.9891 88.4259C81.0536 89.8783 77.5991 91.6692 76.0603 92.8266L75.5295 93.226L71.4791 87.088L41.7499 102.976L34.4739 88.4593L34.467 88.4434C31.182 80.8824 32.1534 67.09 40.4394 54.3416C46.5557 44.9316 56.6657 36.0671 72.0356 30.6251L72.5446 30.4449ZM92.5403 68.3825L86.1541 56.2661C89.0676 54.9974 93.8167 53.4077 99.292 52.4749C104.212 51.6366 109.685 51.3347 114.92 52.2514C116.891 52.5963 118.947 53.2841 120.817 53.9942C121.718 54.3356 122.624 54.772 123.459 55.1421C124.979 55.816 126.411 56.6342 127.807 57.9373L102.518 76.22C100.049 74.4145 94.2338 72.1428 87.1904 74.8969C88.0505 71.6965 90.526 69.5131 92.0068 68.6817L92.5403 68.3825ZM85.4985 78.1733L79.6316 66.7614L35.8822 88.4752L42.2923 101.264L85.4985 78.1733ZM35.3645 87.332C32.6188 80.1878 33.5743 67.417 41.2662 55.3706L79.0017 61.6261C78.667 62.6018 78.4809 64.0687 79.0876 65.631L35.3645 87.332ZM43.6142 111.946C45.6472 116.201 52.8782 123.543 67.9885 123.224L76.7053 102.875C73.1645 102.054 70.89 100.002 69.7724 98.1599L43.6142 111.946ZM77.9682 103.105L69.3716 123.174C70.1742 123.133 70.9979 123.072 71.8429 122.988C89.7498 121.2 106.716 110.494 113.612 104.866L98.2641 95.0077C96.8971 96.3557 94.8388 98.0245 91.858 99.8772L91.8381 99.8898L91.8165 99.9015C86.0943 102.87 81.5082 103.587 77.9682 103.105Z" fill="rgba(253,253,198,0.1)"/>
<path d="M134.144 133.082C134.986 133.096 135.282 132.788 135.35 132.509C135.392 132.337 135.267 132.183 135.112 132.099C135.028 132.052 134.929 132.007 134.827 131.961C134.454 131.791 134.049 131.606 134.205 131.283C134.375 130.93 135.014 130.496 135.898 129.896C136.142 129.729 136.405 129.551 136.682 129.358C138.963 127.766 145.391 126.093 148.221 125.658C148.584 125.584 149.182 125.627 148.664 126.392C148.304 126.924 147.696 127.149 147.127 127.359C146.674 127.526 146.247 127.684 145.988 127.98C145.372 128.711 146.969 128.523 147.817 128.086C148.731 127.613 149.834 126.915 150.654 126.04C152.273 124.312 151.54 123.397 149.892 123.184C144.071 122.77 132.891 128.356 131.166 130.812C129.581 133.069 132.213 133.075 133.761 133.08L133.951 133.08L134.078 133.081L134.144 133.082Z" fill="rgba(253,253,198,0.1)"/>
<path fill-rule="evenodd" clip-rule="evenodd" d="M157.504 123.03C156.077 119.273 147.457 118.927 138.185 122.269C128.869 125.627 122.423 131.437 123.787 135.245C123.8 135.284 123.815 135.323 123.831 135.361C123.834 135.374 123.839 135.388 123.843 135.401L123.849 135.421L123.858 135.444L126.322 141.549C126.72 142.536 127.504 143.426 128.646 143.703C132.222 144.57 138.702 144.386 144.843 142.456C150.983 140.526 156.958 136.79 159.277 130.406C159.745 129.119 159.572 127.736 159.052 126.554L157.504 123.03ZM156.038 125.691C156.5 124.753 156.537 124.04 156.347 123.509L156.345 123.503L156.251 123.289C156.014 122.834 155.545 122.393 154.725 122.024C153.769 121.593 152.439 121.313 150.785 121.244C147.483 121.104 143.153 121.812 138.608 123.45C134.065 125.088 130.275 127.307 127.817 129.522C126.586 130.632 125.737 131.697 125.273 132.639C124.811 133.577 124.774 134.29 124.964 134.82C125.155 135.352 125.634 135.878 126.586 136.306C127.542 136.737 128.873 137.017 130.526 137.087C133.828 137.226 138.158 136.518 142.703 134.88C145.508 133.869 148.025 132.636 150.12 131.32C150.186 131.251 150.267 131.197 150.363 131.163L150.369 131.161C151.564 130.394 152.614 129.601 153.494 128.809C154.725 127.698 155.574 126.633 156.038 125.691ZM145.946 134.933C147.497 134.249 148.938 133.502 150.243 132.716L151.976 137.663C150.666 138.585 149.234 139.372 147.733 140.034L145.946 134.933ZM156.687 132.842C155.706 134.383 154.458 135.72 153.025 136.874L151.33 132.033C152.881 131.013 154.198 129.944 155.227 128.877L156.664 132.787C156.672 132.806 156.679 132.824 156.687 132.842ZM157.492 131.41C157.718 130.949 157.921 130.471 158.101 129.976C158.433 129.062 158.329 128.02 157.907 127.059L157.357 125.808C157.096 126.455 156.694 127.125 156.165 127.802L157.492 131.41ZM144.792 135.422C144.248 135.644 143.692 135.857 143.126 136.061C141.812 136.534 140.511 136.934 139.242 137.26L140.96 142.167C142.124 141.926 143.302 141.625 144.469 141.258C145.179 141.035 145.883 140.788 146.576 140.516L144.792 135.422ZM134.183 138.198C135.403 138.066 136.69 137.851 138.018 137.554L139.717 142.403C138.375 142.634 137.063 142.786 135.819 142.869L134.183 138.198ZM134.514 142.931L132.895 138.309C131.479 138.398 130.169 138.367 129.008 138.218L130.587 142.774C131.729 142.914 133.061 142.972 134.514 142.931ZM126.005 137.42C126.476 137.638 127.008 137.819 127.594 137.962L129.181 142.539C129.138 142.53 129.095 142.52 129.053 142.51C129.016 142.501 128.977 142.492 128.94 142.483C128.294 142.326 127.772 141.802 127.481 141.078L126.005 137.42Z" fill="rgba(253,253,198,0.1)"/>
<path d="M29.7869 143.324C29.5147 143.414 29.0979 143.323 28.6662 142.597C28.6063 142.497 28.5387 142.387 28.4667 142.269C27.6555 140.947 26.2762 138.698 29.0226 138.863C32.0131 139.041 42.6321 145.637 45.3444 150.82C46.0309 152.339 45.642 153.444 43.3244 152.973C42.1519 152.735 40.9782 152.161 40.0974 151.629C39.2806 151.137 38.2813 149.873 39.224 150.014C39.6118 150.079 39.9708 150.361 40.3507 150.659C40.8281 151.033 41.3383 151.434 41.9792 151.461C42.8997 151.501 42.6221 150.968 42.3681 150.697C40.5102 148.511 35.7079 143.91 33.1593 142.802C32.8499 142.667 32.56 142.537 32.2908 142.417C31.3166 141.979 30.6118 141.662 30.2231 141.702C29.8669 141.739 29.9237 142.181 29.9762 142.591C29.9904 142.701 30.0042 142.809 30.0096 142.906C30.0194 143.082 29.9544 143.269 29.7869 143.324Z" fill="rgba(253,253,198,0.1)"/>
<path fill-rule="evenodd" clip-rule="evenodd" d="M39.9584 140.353C47.6704 146.503 51.9142 154.037 49.4814 157.233L47.3094 160.407C46.5803 161.473 45.4995 162.348 44.1625 162.627C37.531 164.009 31.2204 160.879 26.352 156.657C21.4836 152.435 17.9165 147.004 16.7701 143.497C16.404 142.377 16.7453 141.24 17.3722 140.381L21.2505 135.067C21.2679 135.043 21.2868 135.02 21.3068 134.999C21.331 134.967 21.3559 134.933 21.3816 134.901C23.8917 131.733 32.2087 134.174 39.9584 140.353ZM48.4659 156.498C48.116 156.939 47.4928 157.284 46.4546 157.383C45.4115 157.482 44.062 157.319 42.4731 156.853C41.338 156.52 40.1129 156.042 38.8343 155.426L38.8288 155.422C38.7501 155.358 38.6609 155.316 38.5684 155.297C36.3504 154.203 33.9807 152.704 31.647 150.844C27.8668 147.829 24.9877 144.508 23.3682 141.619C22.5568 140.171 22.0937 138.889 21.9554 137.847C21.8177 136.81 22.0111 136.124 22.361 135.682C22.7109 135.241 23.3341 134.896 24.3722 134.797C25.4154 134.698 26.7649 134.861 28.3538 135.327C31.5252 136.258 35.3997 138.322 39.1799 141.336C42.96 144.351 45.8391 147.672 47.4587 150.56C48.2701 152.008 48.7332 153.291 48.8715 154.332C48.9902 155.226 48.863 155.859 48.6019 156.3L48.4701 156.492L48.4659 156.498ZM37.4501 156.137C36.0973 155.438 34.7049 154.601 33.3092 153.638L29.9255 157.848C31.2775 158.779 32.6981 159.587 34.1688 160.218L37.4501 156.137ZM35.3906 160.698C37.1216 161.313 38.9126 161.674 40.7349 161.7C40.7405 161.692 40.7464 161.683 40.7524 161.674C40.7578 161.667 40.7635 161.659 40.7694 161.652L43.3262 158.367C41.8811 158.052 40.2814 157.49 38.6014 156.704L35.3906 160.698ZM43.9079 161.398C43.3944 161.505 42.8821 161.582 42.3715 161.632L44.731 158.601C45.5839 158.697 46.3633 158.687 47.0497 158.569L46.2778 159.697C45.6854 160.563 44.8575 161.2 43.9079 161.398ZM30.8685 151.826C31.3396 152.202 31.8129 152.564 32.2867 152.911L28.9079 157.114C28.3132 156.666 27.7334 156.195 27.1703 155.707C26.2449 154.905 25.3702 154.059 24.5535 153.193L27.808 149.145C28.7524 150.056 29.7756 150.955 30.8685 151.826ZM23.6992 152.256L26.915 148.256C25.9635 147.279 25.1049 146.294 24.3503 145.323L21.2525 149.177C21.9771 150.194 22.7968 151.233 23.6992 152.256ZM21.6091 140.919C22.0946 141.989 22.7577 143.121 23.5789 144.284L20.5133 148.097C19.7131 146.878 19.0611 145.712 18.5792 144.664L21.6091 140.919ZM18.0384 143.341C18.0106 143.262 17.9841 143.183 17.9589 143.106C17.7518 142.473 17.9222 141.752 18.3818 141.122L20.7056 137.938C20.7684 138.455 20.8955 139.004 21.083 139.578L18.0384 143.341Z" fill="rgba(253,253,198,0.1)"/>
</svg>
