<svg width="24" height="24" viewBox="0 0 24 24" fill="none" xmlns="http://www.w3.org/2000/svg">
<mask id="mask0_11_224" style="mask-type:alpha" maskUnits="userSpaceOnUse" x="0" y="0" width="24" height="24">
<rect width="24" height="24" fill="#00f788"/>
</mask>
<g mask="url(#mask0_11_224)">
<path d="M11.975 17.825C12.304 17.825 12.5821 17.7114 12.8092 17.4843C13.0364 17.2571 13.15 16.979 13.15 16.65C13.15 16.321 13.0364 16.0429 12.8092 15.8158C12.5821 15.5886 12.304 15.475 11.975 15.475C11.646 15.475 11.3679 15.5886 11.1407 15.8158C10.9136 16.0429 10.8 16.321 10.8 16.65C10.8 16.979 10.9136 17.2571 11.1407 17.4843C11.3679 17.7114 11.646 17.825 11.975 17.825ZM11.1 14.1H12.85C12.85 13.575 12.9146 13.1583 13.0437 12.85C13.1729 12.5417 13.5167 12.1167 14.075 11.575C14.5083 11.1583 14.8417 10.7563 15.075 10.3688C15.3083 9.98125 15.425 9.525 15.425 9C15.425 8.0908 15.0979 7.39267 14.4438 6.9056C13.7896 6.41853 13.0098 6.175 12.1044 6.175C11.1828 6.175 10.435 6.41458 9.86097 6.89375C9.28699 7.37292 8.88333 7.95 8.65 8.625L10.2303 9.225C10.3101 8.925 10.4938 8.60833 10.7814 8.275C11.0689 7.94167 11.5085 7.775 12.1 7.775C12.6333 7.775 13.0333 7.92083 13.3 8.2125C13.5667 8.50417 13.7 8.825 13.7 9.175C13.7 9.50833 13.6021 9.81667 13.4062 10.1C13.2104 10.3833 12.9667 10.65 12.675 10.9C11.9667 11.525 11.5271 12.0062 11.3562 12.3438C11.1854 12.6813 11.1 13.2667 11.1 14.1ZM12 21.75C10.6515 21.75 9.38434 21.4936 8.19838 20.9809C7.01239 20.4682 5.98075 19.7724 5.10345 18.8934C4.22615 18.0145 3.53125 16.9826 3.01875 15.7978C2.50625 14.613 2.25 13.3471 2.25 12C2.25 10.6515 2.50636 9.38434 3.01908 8.19838C3.53179 7.01239 4.22762 5.98075 5.10658 5.10345C5.98553 4.22615 7.01739 3.53125 8.20218 3.01875C9.38698 2.50625 10.6529 2.25 12 2.25C13.3485 2.25 14.6157 2.50636 15.8016 3.01908C16.9876 3.53179 18.0193 4.22762 18.8966 5.10658C19.7739 5.98553 20.4688 7.01739 20.9813 8.20217C21.4938 9.38697 21.75 10.6529 21.75 12C21.75 13.3485 21.4936 14.6157 20.9809 15.8016C20.4682 16.9876 19.7724 18.0193 18.8934 18.8966C18.0145 19.7739 16.9826 20.4688 15.7978 20.9813C14.613 21.4938 13.3471 21.75 12 21.75ZM12 19.875C14.1917 19.875 16.0521 19.1104 17.5813 17.5813C19.1104 16.0521 19.875 14.1917 19.875 12C19.875 9.80833 19.1104 7.94792 17.5813 6.41875C16.0521 4.88958 14.1917 4.125 12 4.125C9.80833 4.125 7.94792 4.88958 6.41875 6.41875C4.88958 7.94792 4.125 9.80833 4.125 12C4.125 14.1917 4.88958 16.0521 6.41875 17.5813C7.94792 19.1104 9.80833 19.875 12 19.875Z" fill="#00f788"/>
</g>
</svg>
