<svg width="21" height="21" viewBox="0 0 21 21" fill="none" xmlns="http://www.w3.org/2000/svg">
<g clip-path="url(#clip0_1100_1028)">
<path d="M19.9525 11.7809C19.674 11.7809 19.4069 11.6703 19.21 11.4734C19.0131 11.2765 18.9025 11.0094 18.9025 10.7309V8.01141L12.7285 14.1854C12.5317 14.381 12.2656 14.4907 11.9882 14.4907C11.7108 14.4907 11.4447 14.381 11.248 14.1854L7.56247 10.4999L1.79797 16.2644C1.60025 16.4621 1.33208 16.5732 1.05247 16.5732C0.772848 16.5732 0.504684 16.4621 0.306965 16.2644C0.109246 16.0667 -0.00183105 15.7985 -0.00183105 15.5189C-0.00183105 15.2393 0.109246 14.9711 0.306965 14.7734L6.81697 8.26341C7.0137 8.06785 7.27982 7.95808 7.55722 7.95808C7.83461 7.95808 8.10073 8.06785 8.29747 8.26341L11.983 11.9489L17.4115 6.52041H14.7025C14.424 6.52041 14.1569 6.40979 13.96 6.21287C13.7631 6.01596 13.6525 5.74889 13.6525 5.47041C13.6525 5.19193 13.7631 4.92486 13.96 4.72795C14.1569 4.53103 14.424 4.42041 14.7025 4.42041H19.9525C20.2309 4.42041 20.498 4.53103 20.6949 4.72795C20.8918 4.92486 21.0025 5.19193 21.0025 5.47041V10.7204C21.0039 10.8592 20.9777 10.9968 20.9256 11.1255C20.8734 11.2541 20.7963 11.3711 20.6987 11.4697C20.601 11.5683 20.4848 11.6466 20.3567 11.7C20.2286 11.7534 20.0912 11.7809 19.9525 11.7809Z" fill="#00f788"/>
</g>
<defs>
<clipPath id="clip0_1100_1028">
<rect width="21" height="21" fill="white"/>
</clipPath>
</defs>
</svg>
