<svg width="282" height="361" viewBox="0 0 282 361" fill="none" xmlns="http://www.w3.org/2000/svg">
<path fill-rule="evenodd" clip-rule="evenodd" d="M126.6 -47.5893C127.075 -44.0081 127.823 -39.1136 128.729 -34.4594C129.256 -31.7558 129.835 -29.1524 130.44 -26.9436C130.893 -25.2862 131.347 -23.9155 131.78 -22.9063C141.417 -23.9606 150.734 -24.5627 159.574 -24.7363C156.158 -30.1893 154.185 -36.8969 150.21 -41.9525C149.144 -43.3075 147.818 -44.4321 145.752 -45.4646C140.931 -47.8751 134.42 -48.278 126.6 -47.5893ZM155.702 -38.8734C154.783 -40.7607 153.881 -42.4477 152.719 -43.9263C151.34 -45.679 149.634 -47.0933 147.181 -48.3204C141.157 -51.3311 133.28 -51.5092 124.64 -50.6079C115.446 -49.6491 106.388 -47.7143 97.2797 -46.1812C91.9661 -45.2866 87.1431 -44.4747 82.7134 -43.2386C75.5608 -41.2425 69.2765 -38.1107 63.0267 -31.697C59.7756 -28.3606 57.7018 -24.6875 56.4402 -21.0884C45.2973 -16.3468 36.1162 -10.9814 29.7336 -5.3855C23.5012 0.0783463 19.673 6.00194 19.7306 11.9665C13.1803 16.4067 8.02821 21.0424 4.64796 25.7394C1.14076 30.6124 -0.539197 35.6724 0.295758 40.6684C1.21845 46.1901 5.06703 50.7817 10.8674 54.4408C16.5998 58.0571 24.4031 60.8762 33.7332 62.8752L72.8785 278.214C69.4514 280.18 66.5118 282.155 64.1261 284.12C60.4034 287.184 56.0228 291.74 56.9328 297.028L58.2904 305.01C59.109 309.816 60.2057 316.244 61.3185 322.741C62.4316 329.235 63.5609 335.796 64.4447 340.864C65.3186 345.873 65.9712 349.539 66.1197 350.135C66.2562 350.679 66.6155 351.042 66.787 351.201C67.0071 351.407 67.2674 351.593 67.533 351.76C68.07 352.098 68.7939 352.463 69.6808 352.841C71.4649 353.6 74.0597 354.485 77.4897 355.377C84.3576 357.164 94.6665 359.011 108.718 359.967C125.891 361.139 148.671 360.979 177.614 357.749C206.618 354.512 228.622 347.54 244.755 339.884C257.97 333.612 267.248 326.883 273.206 321.374C276.181 318.624 278.345 316.161 279.759 314.193C280.465 313.215 281.004 312.33 281.364 311.573C281.7 310.858 282.001 310.049 281.893 309.245C281.631 307.275 279.693 294.734 277.825 282.723C276.892 276.712 275.973 270.82 275.286 266.431C274.37 260.564 274.149 255.469 268.584 252.043C264.814 249.72 259.251 247.987 252.34 246.803L212.673 33.1754C219.521 29.0918 225.162 24.8295 229.345 20.5072C235.404 14.2437 238.631 7.59073 237.536 1.02848C236.636 -4.35278 232.958 -8.85153 227.404 -12.4624C222.006 -15.9716 214.695 -18.7443 205.958 -20.7644C201.701 -29.833 191.472 -33.8718 182.331 -36.0664C172.942 -38.3208 162.838 -38.8312 155.702 -38.8734ZM212.051 29.8221C218.107 26.1279 223.084 22.3288 226.809 18.5329C227.963 15.2041 227.88 12.5093 226.963 10.2855C226.008 7.96496 224.054 5.9343 221.123 4.1894C215.354 0.75547 206.267 -1.29454 195.543 -2.33731L190.6 3.41302C190.024 4.08181 189.017 4.15778 188.348 3.58334C187.679 3.00865 187.603 2.00068 188.178 1.33189L191.617 -2.66987C162.708 -4.77527 125.732 -0.270149 115.127 1.50196C107.078 2.8469 65.3629 11.6915 37.2195 24.5579L43.4154 29.5429C58.4372 21.6281 85.3298 13.6827 116.403 8.62395C140.752 4.65945 163.194 3.19662 179.804 4.05559C188.098 4.48422 195.026 5.49538 200.035 7.10745C202.537 7.913 204.645 8.89476 206.216 10.0936C207.662 11.1955 208.735 12.5505 209.139 14.1817C210.254 15.5594 211.08 17.3926 211.196 19.547C211.252 20.6417 211.127 21.7918 210.781 22.9794L212.051 29.8221ZM208.389 27.5914L209.125 31.5513C204.223 34.359 198.699 37.095 192.639 39.7104L192.479 38.8017C200.684 35.0688 205.65 31.2351 208.389 27.5914ZM207.135 20.8353L207.492 22.7552C207.186 23.5637 206.728 24.428 206.081 25.3417C203.905 28.4016 199.618 31.9431 191.913 35.5464L191.173 31.2908C196.758 28.7511 201.263 26.1516 204.365 23.5752C205.419 22.7003 206.363 21.7845 207.135 20.8353ZM188.164 32.611C186.076 33.4932 183.858 34.3696 181.517 35.2362C181.75 36.5688 181.954 37.9721 182.071 39.4881C184.569 38.6225 186.84 37.7518 188.906 36.8816L188.164 32.611ZM189.465 40.1074C187.245 41.0245 184.816 41.9334 182.169 42.8297C182.162 43.1862 182.15 43.5489 182.13 43.9185C184.701 42.9627 187.198 41.9834 189.619 40.9845L189.465 40.1074ZM190.178 44.2065C187.465 45.3157 184.664 46.3984 181.775 47.4519C181.094 52.0453 179.452 57.552 176.177 64.5676C174.197 68.8093 170.683 71.8335 166.838 74.294C160.459 78.3784 152.227 80.7666 147.036 86.5066L174.437 119.933C174.977 120.592 174.903 121.56 174.271 122.131L171.325 124.786H174.827C175.374 124.786 175.881 125.065 176.175 125.525C176.469 125.986 176.506 126.564 176.275 127.058L163.331 154.745C165.808 154.674 168.955 154.343 172.906 153.598C181.542 151.971 188.228 153.221 192.668 157.223C197.089 161.21 198.881 167.567 198.56 175.248C198.283 181.931 196.457 188.692 197.03 195.383C197.258 198.03 197.976 200.135 199.454 201.755C200.937 203.382 203.358 204.715 207.385 205.45C211.218 206.151 214.999 206.894 218.609 207.778L190.178 44.2065ZM219.209 211.227C215.349 210.224 211.181 209.391 206.809 208.59C202.358 207.776 199.197 206.215 197.094 203.906C194.984 201.59 194.114 198.721 193.849 195.657C193.261 188.812 195.087 181.941 195.371 175.116C195.67 167.91 193.955 162.683 190.531 159.595C187.122 156.522 181.616 155.206 173.499 156.735C168.595 157.659 164.772 157.99 161.831 157.951L150.604 181.968C150.384 182.438 149.948 182.771 149.438 182.862C148.926 182.955 148.401 182.791 148.034 182.426L106.178 140.909C105.833 140.565 105.663 140.088 105.715 139.604C105.767 139.122 106.035 138.689 106.445 138.428L110.359 135.936L104.59 133.253C103.914 132.938 103.557 132.207 103.696 131.499C100.628 134.103 97.4801 137.119 94.4516 140.551L103.701 189.499C107.314 190.168 110.395 191.695 112.837 193.89C116.131 196.856 118.17 200.958 118.847 205.59C119.927 212.981 117.557 221.721 111.299 229.71L117.181 260.841C130.312 257.074 145.002 253.697 160.62 250.979C184.358 246.85 206.654 244.853 225.054 244.858L219.209 211.227ZM228.299 244.88L222.616 212.182C227.899 213.79 232.463 215.824 235.97 218.684C239.244 221.353 241.592 224.742 242.726 229.234C243.797 233.479 243.807 238.799 242.361 245.551C238.026 245.174 233.32 244.948 228.299 244.88ZM225.868 249.541C209.274 248.333 186.245 249.762 161.169 254.124C145.188 256.905 130.428 260.574 117.9 264.647L123.812 295.938C126.239 296.555 128.372 296.991 130.053 297.263C131.136 279.359 145.453 264.145 164.564 261.718C182.449 259.449 199.067 269.071 205.652 284.299C215.082 281.523 223.447 278.516 230.37 275.447L225.868 249.541ZM130.776 306.998C130.57 306.03 130.403 305.044 130.278 304.047C130.136 302.932 130.048 301.822 130.009 300.719C127.585 300.861 125.215 300.971 122.904 301.047C109.535 301.484 98.1462 300.893 89.8844 299.192C85.7609 298.344 82.3164 297.2 79.7765 295.698C77.2422 294.203 75.4076 292.222 74.9589 289.656L74.9579 289.652L73.4858 281.554C70.6143 283.25 68.1592 284.934 66.1557 286.583C61.3523 290.539 59.6275 293.889 60.0787 296.479C60.3375 297.967 61.3178 299.437 63.2732 300.844C65.2372 302.258 68.0722 303.52 71.7617 304.574C79.1351 306.684 89.569 307.877 102.315 308.054C110.923 308.174 120.504 307.828 130.776 306.998ZM208.247 293.458C207.939 291.33 207.446 289.272 206.792 287.292C229.517 280.579 249.206 270.102 267.839 255.379C271.319 257.881 271.872 261.366 269.419 264.88C268.013 266.892 265.726 269.058 262.565 271.32C256.247 275.837 246.741 280.523 234.815 284.993C226.912 287.956 217.974 290.813 208.247 293.458ZM217.288 294.205C217.785 296.982 218.045 299.842 218.045 302.758C218.045 329.358 196.481 350.922 169.879 350.922C146.007 350.922 126.195 333.561 122.376 310.777C115.95 311.139 109.839 311.301 104.121 311.264L110.236 356.867C127.048 357.928 149.215 357.705 177.261 354.576C205.282 351.449 226.601 344.805 242.295 337.511L234.119 288.657C228.899 290.566 223.268 292.423 217.288 294.205ZM233.372 274.07C236.992 272.35 240.133 270.624 242.736 268.926C245.775 266.943 252.027 262.946 251.26 258.476L251.257 258.469L251.242 258.383C249.816 251.254 234.458 250.35 229.157 249.823L233.372 274.07ZM248.998 246.289L246.596 233.361C246.863 237.03 246.537 241.174 245.557 245.865C246.733 245.992 247.88 246.134 248.998 246.289ZM245.424 227.053C243.996 222.527 241.408 218.998 237.987 216.209C233.737 212.746 228.196 210.43 222.006 208.675L193.2 42.9439C199.219 40.3738 204.762 37.6699 209.742 34.8722L245.424 227.053ZM272.088 266.635L272.037 266.708C270.343 269.132 267.738 271.543 264.42 273.916C258.006 278.503 248.647 283.14 237.168 287.517L245.295 336.078C257.22 330.206 265.618 324.042 271.037 319.031C273.892 316.391 275.904 314.085 277.168 312.33C277.771 311.49 278.477 310.605 278.717 309.578C278.416 307.378 276.514 295.08 274.671 283.214C273.735 277.202 272.816 271.311 272.132 266.924L272.088 266.635ZM106.984 356.642L100.893 311.223C88.6326 310.98 78.3681 309.787 70.8834 307.645C67.0047 306.535 63.7842 305.145 61.4082 303.437L61.2411 303.314L61.4381 304.473C62.2567 309.279 63.3531 315.707 64.4657 322.202C65.5786 328.694 66.7074 335.252 67.5904 340.315C68.3584 344.719 68.9267 347.91 69.1414 348.998C71.7828 350.753 75.2905 351.505 78.2936 352.287C84.6242 353.934 94.0967 355.664 106.984 356.642ZM76.4286 279.888L76.9656 282.844C78.0076 281.415 79.3851 280.025 80.9832 278.697C82.2534 277.638 83.7111 276.577 85.3416 275.518C82.0897 276.972 79.1114 278.432 76.4286 279.888ZM88.562 277.263C86.4083 278.577 84.5551 279.878 83.0259 281.15C79.0712 284.441 77.7603 287.132 78.1037 289.105C78.3272 290.389 79.2878 291.7 81.4008 292.95C83.5104 294.195 86.5686 295.251 90.5285 296.065C97.6958 297.54 107.491 298.168 119.143 297.95C112.351 295.903 104.239 292.641 97.1804 287.806C93.1882 285.069 90.3116 281.444 88.562 277.263ZM120.384 294.989L114.843 265.664C109.529 267.473 104.658 269.35 100.314 271.259C96.9922 272.717 93.9943 274.185 91.3509 275.646C92.8672 279.469 95.4294 282.736 98.9856 285.172C105.842 289.87 113.793 293.029 120.384 294.989ZM89.9342 270.095C97.0848 267.196 105.21 264.38 114.101 261.741L108.635 232.81C107.757 233.744 106.821 234.665 105.828 235.565C96.0455 244.441 90.8787 254.57 89.8969 263.583C89.6516 265.836 89.6661 268.017 89.9342 270.095ZM110.485 225.404L109.981 222.735C109.817 221.87 108.982 221.299 108.116 221.463C107.249 221.627 106.68 222.463 106.843 223.328L107.887 228.85C106.642 230.33 105.243 231.786 103.682 233.202C93.4416 242.493 87.805 253.3 86.7225 263.238C86.4182 266.032 86.4757 268.759 86.8931 271.357C86.5721 271.494 86.2535 271.632 85.9368 271.769C82.2703 273.354 78.8881 274.965 75.8284 276.587L37.1012 63.5489C48.5543 65.6837 62.1787 66.69 77.2011 66.4518L91.0274 139.625C89.1791 141.796 87.3822 144.117 85.6795 146.592C78.2399 157.402 76.1865 168.648 78.8244 177.373C81.4935 186.202 88.9056 192.19 99.649 192.31C100.106 192.315 100.554 192.334 100.993 192.366L103.187 203.975C103.35 204.843 104.185 205.411 105.052 205.247C105.918 205.083 106.488 204.249 106.324 203.382L104.345 192.91C106.876 193.567 108.999 194.733 110.701 196.265C113.375 198.669 115.105 202.063 115.687 206.051C116.522 211.766 114.985 218.696 110.485 225.404ZM100.382 189.134L91.7984 143.705C90.6017 145.202 89.4347 146.766 88.3101 148.4C81.2673 158.635 79.5934 168.883 81.8809 176.449C84.1368 183.911 90.302 189.011 99.6848 189.116C99.9191 189.119 100.152 189.126 100.382 189.134ZM93.7085 136.617C97.8 132.229 102.039 128.551 105.998 125.572L128.685 67.8656C128.891 67.3384 129.364 66.9605 129.923 66.8725C130.482 66.7846 131.048 66.9995 131.405 67.4374L144.995 84.015C150.482 78.257 158.53 75.8218 165.117 71.6048C168.747 69.2823 171.675 66.6628 173.283 63.2178C176.045 57.2964 177.564 52.5854 178.324 48.6824C162.772 54.1031 144.928 58.6722 125.771 61.8731C109.914 64.5228 94.5947 65.9945 80.4374 66.3819L93.7085 136.617ZM79.8368 63.2038C93.9622 62.8431 109.311 61.3864 125.244 58.7239C144.894 55.4407 163.118 50.7109 178.844 45.1147C178.883 44.6939 178.912 44.2827 178.934 43.88C162.451 48.979 135.528 53.2064 108.475 56.437C98.5719 57.6197 88.6321 58.6708 79.1528 59.5829L79.8368 63.2038ZM78.5575 56.4328C88.1008 55.5162 98.1178 54.4583 108.096 53.2667C135.711 49.9691 162.885 45.6629 178.939 40.5316C178.861 39.0465 178.684 37.6665 178.464 36.3353C163.62 41.543 144.36 46.3472 123.108 49.8068C106.894 52.4465 91.5345 53.976 78.1831 54.4511L78.5575 56.4328ZM74.9516 54.5465L75.3652 56.7357C60.351 58.1444 46.6834 59.1925 36.4299 59.8501L34.4929 49.149C34.6174 49.2245 34.7436 49.2985 34.8718 49.3713C37.2945 50.7476 40.5949 51.8183 44.5528 52.6256C52.2044 54.1865 62.6743 54.8325 74.9516 54.5465ZM30.3115 43.9751L33.1161 59.4699C24.7663 57.5817 17.9222 55.0391 12.9002 51.9458C11.6384 49.7022 11.307 47.5784 11.6675 45.5325C12.052 43.3509 13.2504 41.111 15.2517 38.8252C19.1385 34.386 25.7735 30.0882 34.0089 26.0727L40.4079 31.2212C37.4124 32.9984 34.9823 34.7997 33.2533 36.6036C31.1719 38.7752 29.8598 41.2208 30.2769 43.783C30.2875 43.8474 30.299 43.9114 30.3115 43.9751ZM35.5842 21.795C64.128 8.67248 106.439 -0.283382 114.601 -1.6472C125.399 -3.45141 163.265 -8.0727 192.678 -5.79183C192.122 -7.3968 191.279 -9.54066 190.316 -11.8509C189.014 -14.9798 187.561 -18.2676 186.5 -20.6095C179.091 -21.3298 171.041 -21.6638 162.498 -21.5854C152.584 -21.4947 142.012 -20.849 131.016 -19.6091C124.987 -18.9291 118.83 -18.0706 112.586 -17.0273C92.3888 -13.6525 73.6956 -8.74885 57.6736 -2.94583C50.0316 -0.178001 43.0037 2.79226 36.714 5.8951C36.3922 8.03823 36.0045 11.1455 35.7633 14.328C35.5611 16.9985 35.469 19.6421 35.5842 21.795ZM33.2445 7.65935C29.2087 9.77578 25.5211 11.9439 22.2175 14.1422C15.5068 18.6079 10.4382 23.1598 7.23958 27.6044C4.04509 32.0431 2.79523 36.2532 3.44516 40.1422C3.95147 43.173 5.61501 46.0161 8.43699 48.617C8.27892 47.4022 8.3098 46.1876 8.52301 44.9784C9.03986 42.0452 10.6024 39.2884 12.8492 36.7223C17.139 31.8226 24.1904 27.3174 32.4938 23.2593C32.2301 20.6184 32.3392 17.2575 32.5794 14.0868C32.7524 11.8025 32.9987 9.5589 33.2445 7.65935ZM190.178 -20.214C191.129 -18.0885 192.242 -15.5366 193.264 -13.077C194.445 -10.2394 195.562 -7.39631 196.131 -5.4877C206.846 -4.42605 216.413 -2.32996 222.755 1.44584C226.064 3.41449 228.615 5.91053 229.916 9.06973C230.517 10.5272 230.833 12.079 230.855 13.7217C233.847 9.43195 235.019 5.33584 234.387 1.55465C233.686 -2.6314 230.782 -6.45793 225.662 -9.78574C220.545 -13.1138 213.367 -15.8351 204.493 -17.8231C200.104 -18.807 195.312 -19.6077 190.178 -20.214ZM49.5794 62.1277C57.4971 61.529 66.4633 60.7796 75.9605 59.8866L76.5994 63.2675C66.9049 63.4018 57.8265 63.0095 49.5794 62.1277ZM142.975 86.588L132.599 73.9301L143.269 145.771L171.001 120.779L145.147 89.2365C143.978 91.5916 143.644 94.4989 144.713 98.3778C144.948 99.228 144.448 100.107 143.598 100.341C142.747 100.575 141.87 100.076 141.635 99.2263C140.204 94.0337 140.87 89.9381 142.975 86.588ZM140.113 146.251L129.469 74.5962L110.743 122.232C112.9 120.815 114.897 119.64 116.646 118.707C116.656 118.418 116.678 118.131 116.708 117.849C116.937 115.693 117.705 113.454 118.335 112.041C118.694 111.236 119.638 110.875 120.444 111.234C121.249 111.593 121.61 112.537 121.251 113.342C120.826 114.296 120.341 115.667 120.063 117.04C120.231 116.967 120.395 116.898 120.554 116.832C121.369 116.495 122.302 116.882 122.64 117.697C122.696 117.833 122.732 117.972 122.749 118.112C123.007 117.348 123.204 116.571 123.33 115.916C123.495 115.05 124.332 114.483 125.198 114.648C126.063 114.814 126.632 115.65 126.465 116.516C126.185 117.981 125.568 120.156 124.575 121.813C124.084 122.632 123.399 123.498 122.459 124C121.403 124.564 120.191 124.579 119.022 123.934C118.173 123.465 117.601 122.78 117.233 122.022C114.755 123.399 111.806 125.253 108.636 127.589L107.299 130.991L140.113 146.251ZM120.069 120.549C120.184 120.82 120.582 121.383 120.947 121.188L120.954 121.184C121.538 120.872 121.893 120.124 122.171 119.547C122.054 119.642 121.921 119.722 121.775 119.782C121.265 119.993 120.694 120.249 120.069 120.549ZM170.205 132.499L145.649 153.775L149.815 176.113L158.422 157.703C158.113 157.657 157.817 157.608 157.532 157.551C157.182 158.238 156.765 158.899 156.275 159.441C155.618 160.164 154.643 160.867 153.369 160.821C152.153 160.776 151.268 160.117 150.7 159.321C150.163 158.571 149.864 157.649 149.685 156.801C149.325 155.091 149.35 153.135 149.472 151.861C149.555 150.981 150.335 150.339 151.212 150.422C152.089 150.506 152.734 151.285 152.651 152.162C152.545 153.255 152.538 154.86 152.81 156.142C153.126 157.649 153.758 157.728 154.472 156.5C153.807 156.118 153.241 155.628 152.915 155.005C152.506 154.223 152.81 153.258 153.592 152.851C154.351 152.454 155.283 152.728 155.709 153.461C156.008 152.466 156.231 151.486 156.366 150.721C156.518 149.851 157.346 149.273 158.214 149.425C159.084 149.577 159.662 150.405 159.51 151.273C159.353 152.162 159.091 153.324 158.726 154.52C159.067 154.574 159.442 154.62 159.846 154.657L170.205 132.499ZM146.649 176.557L142.51 154.353L113.609 143.781L146.649 176.557ZM58.2814 -6.55497C74.1166 -12.1637 92.3949 -16.8906 112.06 -20.1762C117.613 -21.1043 123.1 -21.8876 128.492 -22.5304C128.092 -23.5898 127.715 -24.8056 127.359 -26.0998C126.727 -28.4138 126.132 -31.102 125.595 -33.8485C124.666 -38.6163 123.904 -43.6189 123.422 -47.2602C114.769 -46.2417 106.229 -44.4487 97.6416 -43.0031C92.9532 -42.214 88.7966 -41.5143 84.924 -40.5244L87.8824 -19.8731C88.0074 -19.0004 87.4011 -18.1917 86.5284 -18.0667C85.6555 -17.9414 84.8465 -18.5477 84.7215 -19.4204L81.8243 -39.6451C75.8556 -37.763 70.5986 -34.8925 65.3137 -29.4688C57.7287 -21.6851 57.3459 -11.786 58.2814 -6.55497ZM177.292 -13.2454C168.997 -13.2454 148.119 -12.7043 131.038 -10.5489C113.989 -8.39717 93.3563 -2.96592 85.1769 -0.518894C84.3321 -0.265984 83.4425 -0.745827 83.1896 -1.59058C82.9369 -2.43534 83.4168 -3.32495 84.2615 -3.57762C92.5162 -6.0472 113.339 -11.5333 130.638 -13.7164C147.906 -15.8956 168.931 -16.4384 177.292 -16.4384C178.175 -16.4384 178.89 -15.7236 178.89 -14.8418C178.89 -13.9603 178.175 -13.2454 177.292 -13.2454ZM200.704 -12.3908C200.849 -13.2608 201.67 -13.8507 202.54 -13.7081C205.314 -13.2535 209.705 -12.4663 213.884 -11.5794C217.994 -10.7072 222.099 -9.69825 224.16 -8.77237C224.964 -8.41114 225.321 -7.46639 224.961 -6.66207C224.601 -5.85775 223.655 -5.49872 222.851 -5.85995C221.158 -6.61992 217.408 -7.56761 213.22 -8.45624C209.103 -9.33065 204.76 -10.1087 202.023 -10.5572C201.153 -10.6999 200.562 -11.5208 200.704 -12.3908ZM64.9184 3.25397C65.0659 4.12323 64.4807 4.9474 63.6112 5.09469C61.1127 5.51817 56.9232 7.06825 52.5668 8.92073C48.2636 10.7509 43.9673 12.8017 41.3328 14.128C40.5454 14.5245 39.5854 14.2076 39.1889 13.42C38.7924 12.6326 39.1093 11.6729 39.8969 11.2763C42.5809 9.92503 46.94 7.84438 51.3172 5.98282C55.641 4.14381 60.1572 2.4418 63.0777 1.94676C63.9469 1.79947 64.7711 2.3847 64.9184 3.25397ZM145.843 97.4924C146.566 96.9883 147.561 97.1659 148.065 97.8891C149.217 99.5414 149.668 101.312 149.399 102.903C149.129 104.504 148.127 105.854 146.595 106.443C144.777 107.142 143.063 106.127 142.051 105.317C140.936 104.424 140 103.254 139.466 102.441C138.981 101.705 139.182 100.715 139.919 100.23C140.654 99.7443 141.645 99.9473 142.13 100.683C142.598 101.393 144.355 103.883 145.448 103.463C146.985 102.872 146.068 100.608 145.446 99.7149C144.941 98.9917 145.117 97.9967 145.843 97.4924ZM230.456 297.009C231.328 296.881 232.139 297.484 232.267 298.356L233.735 308.336C233.865 309.208 233.262 310.019 232.389 310.149C231.517 310.277 230.706 309.674 230.576 308.801L229.108 298.82C228.98 297.947 229.583 297.136 230.456 297.009ZM233.264 314.034C234.139 313.916 234.943 314.529 235.06 315.401L236.957 329.493C237.075 330.368 236.462 331.171 235.59 331.289C234.715 331.407 233.911 330.794 233.793 329.919L231.894 315.828C231.777 314.955 232.389 314.151 233.264 314.034ZM109.257 316.516C110.128 316.384 110.943 316.982 111.076 317.854L111.917 323.371C112.05 324.241 111.451 325.057 110.58 325.189C109.708 325.322 108.894 324.724 108.76 323.851L107.919 318.335C107.786 317.465 108.385 316.649 109.257 316.516ZM110.805 327.728C111.681 327.625 112.475 328.25 112.579 329.125L113.233 334.642C113.337 335.517 112.712 336.311 111.836 336.416C110.96 336.519 110.166 335.894 110.063 335.017L109.408 329.503C109.304 328.625 109.93 327.831 110.805 327.728ZM169.026 279.788C155.104 279.788 143.816 291.073 143.816 304.995C143.816 318.918 155.104 330.203 169.026 330.203C182.951 330.203 194.237 318.918 194.237 304.995C194.237 291.073 182.951 279.788 169.026 279.788ZM140.623 304.995C140.623 289.309 153.339 276.594 169.026 276.594C184.713 276.594 197.43 289.309 197.43 304.995C197.43 320.68 184.713 333.397 169.026 333.397C153.339 333.397 140.623 320.68 140.623 304.995ZM169.879 271.857C151.575 271.857 136.738 286.694 136.738 304.995C136.738 323.297 151.575 338.134 169.879 338.134C188.181 338.134 203.02 323.297 203.02 304.995C203.02 286.694 188.181 271.857 169.879 271.857Z" fill="rgba(253,253,198,0.1)"/>
</svg>
