<svg width="29" height="29" viewBox="0 0 29 29" fill="none" xmlns="http://www.w3.org/2000/svg">
<path d="M15.4062 18.7293C15.4062 18.9697 15.3108 19.2002 15.1408 19.3701C14.9709 19.5401 14.7404 19.6356 14.5 19.6356C14.2596 19.6356 14.0291 19.5401 13.8592 19.3701C13.6892 19.2002 13.5937 18.9697 13.5937 18.7293V10.271C13.5937 10.0306 13.6892 9.80014 13.8592 9.63018C14.0291 9.46023 14.2596 9.36475 14.5 9.36475C14.7404 9.36475 14.9709 9.46023 15.1408 9.63018C15.3108 9.80014 15.4062 10.0306 15.4062 10.271V18.7293ZM19.9375 18.7293C19.9375 18.9697 19.842 19.2002 19.6721 19.3701C19.5021 19.5401 19.2716 19.6356 19.0312 19.6356C18.7909 19.6356 18.5604 19.5401 18.3904 19.3701C18.2205 19.2002 18.125 18.9697 18.125 18.7293V13.896C18.125 13.6556 18.2205 13.4251 18.3904 13.2552C18.5604 13.0852 18.7909 12.9897 19.0312 12.9897C19.2716 12.9897 19.5021 13.0852 19.6721 13.2552C19.842 13.4251 19.9375 13.6556 19.9375 13.896V18.7293ZM10.875 18.7293C10.875 18.9697 10.7795 19.2002 10.6096 19.3701C10.4396 19.5401 10.2091 19.6356 9.96875 19.6356C9.72839 19.6356 9.49789 19.5401 9.32793 19.3701C9.15798 19.2002 9.0625 18.9697 9.0625 18.7293V12.6877C9.0625 12.4473 9.15798 12.2168 9.32793 12.0468C9.49789 11.8769 9.72839 11.7814 9.96875 11.7814C10.2091 11.7814 10.4396 11.8769 10.6096 12.0468C10.7795 12.2168 10.875 12.4473 10.875 12.6877V18.7293ZM5.73958 3.92725H23.2604C25.0956 3.92725 26.5833 5.41501 26.5833 7.25016V21.7502C26.5833 23.5853 25.0956 25.0731 23.2604 25.0731H5.73958C3.90442 25.0731 2.41666 23.5853 2.41666 21.7502V7.25016C2.41666 5.41501 3.90442 3.92725 5.73958 3.92725ZM5.73958 5.73975C5.54123 5.73975 5.34482 5.77881 5.16157 5.85472C4.97832 5.93063 4.81181 6.04188 4.67156 6.18214C4.5313 6.32239 4.42004 6.4889 4.34414 6.67215C4.26823 6.8554 4.22916 7.05181 4.22916 7.25016V21.7502C4.22916 21.9485 4.26823 22.1449 4.34414 22.3282C4.42004 22.5114 4.5313 22.6779 4.67156 22.8182C4.81181 22.9584 4.97832 23.0697 5.16157 23.1456C5.34482 23.2215 5.54123 23.2606 5.73958 23.2606H23.2604C23.4588 23.2606 23.6552 23.2215 23.8384 23.1456C24.0217 23.0697 24.1882 22.9584 24.3284 22.8182C24.4687 22.6779 24.58 22.5114 24.6559 22.3282C24.7318 22.1449 24.7708 21.9485 24.7708 21.7502V7.25016C24.7708 7.05181 24.7318 6.8554 24.6559 6.67215C24.58 6.4889 24.4687 6.32239 24.3284 6.18214C24.1882 6.04188 24.0217 5.93063 23.8384 5.85472C23.6552 5.77881 23.4588 5.73975 23.2604 5.73975H5.73958Z" fill="#C3D4A6"/>
</svg>
