<svg width="16" height="16" viewBox="0 0 16 16" fill="none" xmlns="http://www.w3.org/2000/svg">
<g clip-path="url(#clip0_1115_1609)">
<path d="M13.3334 12.0012C12.7128 12.8295 11.9076 13.5016 10.9818 13.9644C10.056 14.4271 9.03504 14.6676 8.00004 14.6668C4.31804 14.6668 1.33337 11.6822 1.33337 8.00016C1.33337 4.31816 4.31804 1.3335 8.00004 1.3335C11.682 1.3335 14.6667 4.31816 14.6667 8.00016C14.6667 8.08857 14.6316 8.17335 14.5691 8.23587C14.5066 8.29838 14.4218 8.3335 14.3334 8.3335C14.245 8.3335 14.1602 8.29838 14.0977 8.23587C14.0352 8.17335 14 8.08857 14 8.00016C14 4.6865 11.3137 2.00016 8.00004 2.00016C4.68637 2.00016 2.00004 4.6865 2.00004 8.00016C2.00004 11.3138 4.68637 14.0002 8.00004 14.0002C8.98706 14.0009 9.959 13.7579 10.8295 13.2927C11.7 12.8275 12.4422 12.1545 12.99 11.3335H11.6657C11.622 11.3335 11.5787 11.3249 11.5382 11.3082C11.4978 11.2914 11.4611 11.2669 11.4303 11.2359C11.3994 11.2049 11.3749 11.1682 11.3583 11.1277C11.3417 11.0872 11.3332 11.0439 11.3334 11.0002C11.3334 10.8162 11.4844 10.6668 11.6657 10.6668H13.6677C13.7594 10.6668 13.8424 10.7035 13.9024 10.7635L13.9027 10.7652C13.9627 10.8258 14 10.9085 14 10.9992V13.0012C14 13.1845 13.852 13.3335 13.6667 13.3335C13.4827 13.3335 13.3334 13.1825 13.3334 13.0012V12.0012Z" fill="#969A9E" stroke="#969A9E"/>
</g>
<defs>
<clipPath id="clip0_1115_1609">
<rect width="16" height="16" fill="white"/>
</clipPath>
</defs>
</svg>
