<svg width="155" height="155" viewBox="0 0 155 155" fill="none" xmlns="http://www.w3.org/2000/svg">
<path d="M46.7362 98.9984L24.7418 112.125L77.7372 142.629L130.258 112.031L107.695 98.9984M46.7362 98.9984L77.7372 116.092M46.7362 98.9984L33.6532 91.538M107.695 98.9984L77.7372 116.092M107.695 98.9984L120.683 91.538M77.7372 116.092V78.4111M33.6532 91.538L66.5501 72.7448M33.6532 91.538L48.9166 62.262M120.683 91.538L87.5968 72.7448M120.683 91.538L105.041 62.262M77.7372 78.4111L66.5501 72.7448M77.7372 78.4111L87.5968 72.7448M66.5501 72.7448L48.9166 62.262M48.9166 62.262L68.1844 51.2417M87.5968 72.7448L105.041 62.262M105.041 62.262L86.554 51.685M86.554 51.685L83.0109 53.6205M86.554 51.685L96.0338 46.3964L77.7372 56.5014M83.0109 53.6205L77.7372 56.5014M83.0109 53.6205L98.1201 62.262L77.7372 73.9721L56.8801 62.262L71.3851 53.1016M77.7372 56.5014L71.3851 53.1016M71.3851 53.1016L68.1844 51.2417M68.1844 51.2417L58.871 45.8299M122.863 94.8433L77.7372 121.38L32.0415 94.8433M77.7372 53.1016V11.6432M77.7372 53.1016L94.5173 44.0356L77.7372 11.6432M77.7372 53.1016L60.3879 44.0356L77.7372 11.6432" stroke="#00f68b" stroke-width="2" stroke-linecap="round"/>
</svg>
