<svg width="20" height="20" viewBox="0 0 20 20" fill="none" xmlns="http://www.w3.org/2000/svg">
<g clip-path="url(#clip0_1100_1033)">
<path d="M19.0024 8.77991C18.7371 8.77991 18.4828 8.88527 18.2952 9.0728C18.1077 9.26034 18.0024 9.51469 18.0024 9.77991V12.3699L12.1224 6.48991C11.935 6.30366 11.6815 6.19912 11.4174 6.19912C11.1532 6.19912 10.8997 6.30366 10.7124 6.48991L7.20235 9.99991L1.71235 4.50991C1.52405 4.32161 1.26865 4.21582 1.00235 4.21582C0.73605 4.21582 0.480656 4.32161 0.292352 4.50991C0.104048 4.69822 -0.0017395 4.95361 -0.0017395 5.21991C-0.0017395 5.48621 0.104048 5.74161 0.292352 5.92991L6.49235 12.1299C6.67971 12.3162 6.93317 12.4207 7.19735 12.4207C7.46154 12.4207 7.71499 12.3162 7.90235 12.1299L11.4124 8.61991L16.5824 13.7899H14.0024C13.7371 13.7899 13.4828 13.8953 13.2952 14.0828C13.1077 14.2703 13.0024 14.5247 13.0024 14.7899C13.0024 15.0551 13.1077 15.3095 13.2952 15.497C13.4828 15.6846 13.7371 15.7899 14.0024 15.7899H19.0024C19.2676 15.7899 19.5219 15.6846 19.7095 15.497C19.897 15.3095 20.0024 15.0551 20.0024 14.7899V9.78991C20.0037 9.65775 19.9788 9.52664 19.9291 9.40416C19.8795 9.28167 19.806 9.17025 19.713 9.07633C19.62 8.98241 19.5093 8.90786 19.3874 8.85698C19.2654 8.8061 19.1345 8.77991 19.0024 8.77991Z" fill="#969A9E"/>
</g>
<defs>
<clipPath id="clip0_1100_1033">
<rect width="20" height="20" fill="white"/>
</clipPath>
</defs>
</svg>
