<svg width="27" height="27" viewBox="0 0 27 27" fill="currentColor" xmlns="http://www.w3.org/2000/svg">
<g clip-path="url(#clip0_778_55893)">
<path d="M26.8102 11.1163C26.6862 11.2903 26.4885 11.3853 26.2881 11.3853C26.1589 11.3853 26.0297 11.3457 25.9163 11.2666L13.4816 2.3835L4.9755 8.46113V24.7402H21.9902V12.5533C21.9902 12.2 22.2776 11.9126 22.631 11.9126C22.9843 11.9126 23.2717 12.2 23.2717 12.5533V25.381C23.2717 25.7343 22.9843 26.0217 22.631 26.0217H4.33477C3.98145 26.0217 3.69405 25.7343 3.69405 25.381V9.37607L1.04679 11.2666C0.759385 11.4723 0.358603 11.4063 0.152939 11.1163C-0.0527246 10.8289 0.0131933 10.4281 0.303232 10.2225L13.1098 1.07568C13.3313 0.91748 13.6318 0.91748 13.8533 1.07568L26.6599 10.2225C26.9499 10.4308 27.0158 10.8289 26.8102 11.1163ZM19.4722 8.50068C19.2428 8.23174 18.8367 8.2001 18.5704 8.42949L14.6813 11.7518L12.6483 9.44463C12.4374 9.20469 12.0788 9.15723 11.8125 9.33389L7.63858 12.1156C7.34327 12.3107 7.26417 12.7089 7.46192 13.0042C7.58585 13.1888 7.78888 13.289 7.99454 13.289C8.11583 13.289 8.23976 13.2547 8.34786 13.1809L12.0551 10.7103L14.1355 13.0728C14.3675 13.3338 14.7656 13.3628 15.0319 13.136L19.401 9.40244C19.6699 9.17305 19.7016 8.76963 19.4722 8.50068ZM8.77765 16.2342V22.4463C8.77765 22.7996 9.06505 23.087 9.41837 23.087C9.77169 23.087 10.0591 22.7996 10.0591 22.4463V16.2342C10.0591 15.8809 9.77169 15.5935 9.41837 15.5935C9.06505 15.5935 8.77765 15.8809 8.77765 16.2342ZM12.8408 16.2342V22.4463C12.8408 22.7996 13.1282 23.087 13.4816 23.087C13.8349 23.087 14.1223 22.7996 14.1223 22.4463V16.2342C14.1223 15.8809 13.8349 15.5935 13.4816 15.5935C13.1282 15.5935 12.8408 15.8809 12.8408 16.2342ZM17.2626 15.3192V22.4463C17.2626 22.7996 17.55 23.087 17.9033 23.087C18.2567 23.087 18.5441 22.7996 18.5441 22.4463V15.3192C18.5441 14.9659 18.2567 14.6785 17.9033 14.6785C17.55 14.6785 17.2626 14.9659 17.2626 15.3192Z" />
</g>
<defs>
<clipPath id="clip0_778_55893">
<rect width="27" height="27" fill="white"/>
</clipPath>
</defs>
</svg>
