<svg width="45" height="45" viewBox="0 0 45 45" fill="none" xmlns="http://www.w3.org/2000/svg">
<rect x="1" y="1" width="43" height="43" rx="21.5" fill="url(#paint0_linear_9_233)" stroke="url(#paint1_linear_9_233)" stroke-width="2"/>
<g clip-path="url(#clip0_9_233)">
<path d="M17.4377 35.1875C28.7557 35.1875 34.9479 25.8084 34.9479 17.6774C34.9479 17.4137 34.942 17.1442 34.9303 16.8805C36.1348 16.0094 37.1744 14.9304 38 13.6942C36.8782 14.1933 35.6871 14.5193 34.4674 14.661C35.7516 13.8912 36.7132 12.6819 37.1738 11.2573C35.9657 11.9733 34.6445 12.4783 33.2668 12.7508C32.3385 11.7645 31.1112 11.1115 29.7746 10.8926C28.438 10.6738 27.0665 10.9014 25.8722 11.5402C24.6779 12.179 23.7273 13.1934 23.1673 14.4267C22.6074 15.66 22.4693 17.0433 22.7744 18.3629C20.3281 18.2402 17.9349 17.6047 15.75 16.4977C13.565 15.3907 11.6371 13.8369 10.0912 11.937C9.3055 13.2916 9.06507 14.8946 9.41879 16.4202C9.77251 17.9457 10.6938 19.2794 11.9955 20.15C11.0183 20.119 10.0625 19.8559 9.20703 19.3825V19.4586C9.20616 20.8802 9.69762 22.2583 10.5979 23.3585C11.4982 24.4588 12.7517 25.2133 14.1453 25.4938C13.2401 25.7415 12.29 25.7776 11.3686 25.5993C11.7618 26.8219 12.527 27.8912 13.5572 28.658C14.5875 29.4248 15.8314 29.8508 17.1154 29.8766C14.9355 31.5889 12.2427 32.5177 9.4707 32.5133C8.97911 32.5126 8.488 32.4824 8 32.4231C10.8161 34.2297 14.0919 35.1893 17.4377 35.1875Z" fill="#00f68b"/>
</g>
<defs>
<linearGradient id="paint0_linear_9_233" x1="4.1411" y1="-3.19313e-06" x2="48.8624" y2="10.0703" gradientUnits="userSpaceOnUse">
<stop stop-color="#013820"/>
<stop offset="1" stop-color="#013820"/>
</linearGradient>
<linearGradient id="paint1_linear_9_233" x1="22.5" y1="0" x2="22.5" y2="45" gradientUnits="userSpaceOnUse">
<stop stop-color="#00f68b"/>
<stop offset="1" stop-color="#00f68b" stop-opacity="0"/>
</linearGradient>
<clipPath id="clip0_9_233">
<rect width="30" height="30" fill="white" transform="translate(8 8)"/>
</clipPath>
</defs>
</svg>
