<svg width="15" height="12" viewBox="0 0 15 12" fill="none" xmlns="http://www.w3.org/2000/svg">
<g clip-path="url(#clip0_1115_1606)">
<path d="M14.4345 5.00963H13.5456V4.0637C13.545 3.57156 13.3468 3.09975 12.9944 2.75175C12.642 2.40376 12.1642 2.208 11.6658 2.20741H10.7657V1.85926C10.7659 1.36648 10.5679 0.89379 10.2152 0.545133C9.86259 0.196476 9.38416 0.000392773 8.88514 0L0.586592 0C0.511769 -1.0299e-06 0.437684 0.0146006 0.368594 0.0429655C0.299504 0.0713305 0.236773 0.112899 0.184005 0.165283C0.131237 0.217667 0.0894725 0.279833 0.061113 0.348208C0.0327535 0.416582 0.0183577 0.489817 0.0187531 0.563704V2.62667C0.00638598 2.67284 8.33108e-05 2.72039 1.50239e-07 2.76815V10.1407C-0.000199047 10.6334 0.19769 11.106 0.550177 11.4546C0.902664 11.8032 1.3809 11.9994 1.87979 12H11.6658C12.1642 11.9994 12.642 11.8036 12.9944 11.4557C13.3468 11.1077 13.545 10.6358 13.5456 10.1437V9.04519H14.4345C14.5851 9.04519 14.7295 8.98611 14.836 8.88095C14.9425 8.77579 15.0023 8.63316 15.0023 8.48444V5.57037C15.0023 5.49673 14.9877 5.42382 14.9591 5.35578C14.9306 5.28775 14.8888 5.22594 14.836 5.17387C14.7833 5.1218 14.7207 5.08049 14.6518 5.05231C14.5829 5.02413 14.5091 5.00963 14.4345 5.00963ZM8.88364 1.1237C9.081 1.1241 9.27015 1.20174 9.40963 1.33962C9.54912 1.4775 9.62756 1.66437 9.62775 1.85926V2.20741H1.15143V1.1237H8.88364ZM12.4092 10.1407C12.4078 10.3354 12.3289 10.5217 12.1895 10.6594C12.0501 10.797 11.8614 10.8749 11.6643 10.8763H1.87979C1.68267 10.8749 1.49401 10.797 1.35461 10.6594C1.21522 10.5217 1.1363 10.3354 1.13493 10.1407V3.32593H11.6658C11.8629 3.32728 12.0516 3.40522 12.191 3.54287C12.3304 3.68052 12.4093 3.86682 12.4107 4.06148V5.00963H10.1971C10.0465 5.00963 9.90206 5.06871 9.79557 5.17387C9.68908 5.27903 9.62925 5.42165 9.62925 5.57037V8.48444C9.62925 8.63316 9.68908 8.77579 9.79557 8.88095C9.90206 8.98611 10.0465 9.04519 10.1971 9.04519H12.4107L12.4092 10.1407ZM13.8674 7.92593H10.7649V6.13111H13.8674V7.92593Z" fill="#969A9E"/>
<path d="M11.1055 6.50439H12.3162V7.62514H11.1055V6.50439Z" fill="#969A9E"/>
</g>
<defs>
<clipPath id="clip0_1115_1606">
<rect width="15" height="12" fill="white"/>
</clipPath>
</defs>
</svg>
